<svg xmlns="http://www.w3.org/2000/svg" height="24" viewBox="0 -960 960 960" width="24">
  <path d="M480-419.348 289.326-228.674Q276.652-216 259-216.25t-30.326-12.924Q216.5-241.848 216.75-259.25t12.424-29.576L419.348-480 229.174-671.174Q217-683.348 217-700.75t12.174-30.076Q241.348-743.5 259-743.75t30.326 12.424L480-540.652l190.674-190.674Q683.348-744 701-743.75t30.326 12.924q12.174 12.674 11.924 30.076t-12.424 29.576L540.652-480l190.174 191.174Q743-276.652 743-259.25t-12.174 30.076Q718.652-216.5 701-216.25t-30.326-12.424L480-419.348Z" fill="white"/>
</svg>
